<?xml version="1.0" encoding="iso-8859-1"?>
<!-- Generator: Adobe Illustrator 18.1.1, SVG Export Plug-In . SVG Version: 6.00 Build 0)  -->
<svg version="1.1" id="Capa_1" xmlns="http://www.w3.org/2000/svg" xmlns:xlink="http://www.w3.org/1999/xlink" x="0px" y="0px"
	 viewBox="0 0 56.787 56.787" style="enable-background:new 0 0 56.787 56.787;" xml:space="preserve">
<g>
	<path style="fill:#010002;" d="M20.875,23.107c-0.178,0.011-0.756,0.508-0.756,0.508C20.43,23.749,21.054,23.096,20.875,23.107z
		 M20.953,23.005l-0.046,0.028c0.016-0.006,0.031-0.012,0.045-0.018C20.952,23.011,20.953,23.009,20.953,23.005z M42.363,0.76
		c3.207,0,5.807,2.6,5.807,5.807s-2.6,5.807-5.807,5.807s-5.807-2.6-5.807-5.807S39.156,0.76,42.363,0.76z M7.503,25.657h1.556
		v-0.748H7.503c-0.424,0-0.73-0.084-0.842-0.23c-0.085-0.112-0.048-0.258-0.048-0.258l0.019-4.516H5.884v4.357
		c-0.033,0.152-0.075,0.517,0.171,0.853C6.317,25.474,6.806,25.657,7.503,25.657z M56.688,36.269l-0.211-1.712
		c-0.834-6.688-0.867-6.943-0.545-18.729c0.01-0.413-0.312-0.756-0.728-0.768c-0.392-0.026-0.756,0.314-0.769,0.727
		c-0.324,11.896-0.289,12.161,0.557,18.952l0.212,1.715c0.217,1.643,0.026,2.781-0.533,3.219c-0.651,0.502-1.79,0.056-1.868,0.024
		c-5.501-1.692-12.354,1.804-12.644,1.949c-0.367,0.188-0.511,0.641-0.321,1.008c0.133,0.257,0.395,0.401,0.665,0.401
		c0.115,0,0.231-0.024,0.343-0.084c0.045-0.021,3.104-1.576,6.576-2.096V52.52h-3.107c-0.633,0-1.146,0.512-1.146,1.145
		c0,0.631,0.513,1.145,1.146,1.145h8.826c0.633,0,1.146-0.514,1.146-1.145c0-0.633-0.514-1.145-1.146-1.145h-2.863V40.749
		c0.689,0.047,1.369,0.154,2.021,0.354c0.08,0.032,1.935,0.794,3.281-0.24C56.611,40.071,56.986,38.522,56.688,36.269z
		 M53.132,32.874c-0.129-4.919-1.741-9.636-1.868-14.534c-0.187-7.134-11.119-7.296-11.207-0.337
		c-4.184,0.712-8.363,1.09-12.617,0.89c-3.861-0.181-3.873,5.8-0.039,5.979c4.468,0.209,8.9-0.215,13.301-0.937
		c0.452,2.618,0.987,5.223,1.157,7.871c-9.104,3.18-14.15,10.885-15.438,20.677c-0.009,0.067-0.011,0.139-0.017,0.209v-21.68h5.741
		v-5.125h-20.59c0.012-0.065,0.017-0.141,0.021-0.235c0.002-0.056,0.005-0.118,0.009-0.188c0.026-0.433,0.102-0.581,0.526-0.663
		c0.107-0.02,0.242-0.026,0.378-0.024v0.36h5.526c0.161,0.03,0.321,0.053,0.47,0.053c0.232,0,0.432-0.053,0.55-0.212
		c0.062-0.083,0.062-0.198,0.061-0.309c0-0.107-0.001-0.217,0.051-0.282c0.08-0.097,0.234-0.162,0.343-0.172
		c-0.115,0.222-0.187,0.458-0.187,0.708h6.259c0-1.204-1.402-2.18-3.129-2.18c-0.54,0-1.037,0.103-1.479,0.27
		c0.103,1.031-0.867,0.931-1.242,0.855c-0.044,0.055-0.082,0.113-0.12,0.171c-0.017-0.004-0.031-0.014-0.05-0.015
		c-0.167-0.008-0.408,0.093-0.535,0.247c-0.095,0.116-0.093,0.266-0.093,0.398c0.001,0.081,0.001,0.165-0.024,0.198
		c-0.066,0.089-0.196,0.118-0.345,0.126v-0.862H12.49v0.457c-0.161-0.001-0.311,0.013-0.413,0.033
		c-0.537,0.103-0.645,0.35-0.674,0.83c-0.004,0.072-0.006,0.136-0.009,0.192c-0.004,0.109-0.008,0.185-0.023,0.243H0v5.125h3.125
		v24.858h23.278V53.38c0.379,3.83,6.916,3.48,7.492-0.904c0.996-7.575,5.414-12.633,12.842-14.307
		C49.825,38.639,53.236,36.884,53.132,32.874z M8.444,9.014l0.941,13.417L6.9,22.605L5.959,9.189L8.444,9.014z"/>
</g>
<g>
</g>
<g>
</g>
<g>
</g>
<g>
</g>
<g>
</g>
<g>
</g>
<g>
</g>
<g>
</g>
<g>
</g>
<g>
</g>
<g>
</g>
<g>
</g>
<g>
</g>
<g>
</g>
<g>
</g>
</svg>
